HIERARCHY
ROOT Hips
{
	OFFSET -3.958830 18.904000 13.208200
	CHANNELS 6 Xposition Yposition Zposition Zrotation Yrotation Xrotation 
	JOINT LHipJoint
	{
		OFFSET 0.000000 0.000000 0.000000
		CHANNELS 3 Zrotation Yrotation Xrotation
		JOINT LeftUpLeg
		{
			OFFSET 1.800000 -1.400000 0.085000
			CHANNELS 3 Zrotation Yrotation Xrotation
			JOINT LeftLeg
			{
				OFFSET 2.215000 -6.000000 0.000000
				CHANNELS 3 Zrotation Yrotation Xrotation
				JOINT LeftFoot
				{
					OFFSET 2.500000 -6.900000 0.000000
					CHANNELS 3 Zrotation Yrotation Xrotation
					JOINT LeftToeBase
					{
						OFFSET 0.200000 -0.500000 1.950000
						CHANNELS 3 Zrotation Yrotation Xrotation
						End Site
						{
							OFFSET 0.000000 0.000000 0.000000
						}
					}
				}
			}
		}
	}
	JOINT RHipJoint
	{
		OFFSET 0.000000 0.000000 0.000000
		CHANNELS 3 Zrotation Yrotation Xrotation
		JOINT RightUpLeg
		{
			OFFSET -1.800000 -1.400000 0.085000
			CHANNELS 3 Zrotation Yrotation Xrotation
			JOINT RightLeg
			{
				OFFSET -2.215000 -6.000000 0.000000
				CHANNELS 3 Zrotation Yrotation Xrotation
				JOINT RightFoot
				{
					OFFSET -2.500000 -6.900000 0.000000
					CHANNELS 3 Zrotation Yrotation Xrotation
					JOINT RightToeBase
					{
						OFFSET -0.200000 -0.500000 1.950000
						CHANNELS 3 Zrotation Yrotation Xrotation
						End Site
						{
							OFFSET 0.000000 0.000000 0.000000
						}
					}
				}
			}
		}
	}
	JOINT LowerBack
	{
		OFFSET 0.000000 0.000000 0.000000
		CHANNELS 3 Zrotation Yrotation Xrotation
		JOINT Spine
		{
			OFFSET -0.087000 1.940000 -0.288900
			CHANNELS 3 Zrotation Yrotation Xrotation
			JOINT Spine1
			{
				OFFSET 0.000000 1.950000 0.060000
				CHANNELS 3 Zrotation Yrotation Xrotation
				JOINT Neck
				{
					OFFSET 0.000000 0.000000 0.000000
					CHANNELS 3 Zrotation Yrotation Xrotation
					JOINT Neck1
					{
						OFFSET 0.000000 1.600000 0.340000
						CHANNELS 3 Zrotation Yrotation Xrotation
						JOINT Head
						{
							OFFSET 0.000000 1.667000 -0.240000
							CHANNELS 3 Zrotation Yrotation Xrotation
							End Site
							{
								OFFSET 0.000000 0.000000 0.000000
							}
						}
					}
				}
				JOINT LeftShoulder
				{
					OFFSET 0.000000 0.000000 0.000000
					CHANNELS 3 Zrotation Yrotation Xrotation
					JOINT LeftArm
					{
						OFFSET 2.700000 1.550000 -0.730000
						CHANNELS 3 Zrotation Yrotation Xrotation
						JOINT LeftForeArm
						{
							OFFSET 5.450000 0.000000 0.000000
							CHANNELS 3 Zrotation Yrotation Xrotation
							JOINT LeftHand
							{
								OFFSET 3.450000 0.000000 0.000000
								CHANNELS 3 Zrotation Yrotation Xrotation
								JOINT LeftHandIndex1
								{
									OFFSET 0.750000 0.000000 0.000000
									CHANNELS 3 Zrotation Yrotation Xrotation
									End Site
									{
										OFFSET 0.000000 0.000000 0.000000
									}
								}
							}
						}
					}
				}
				JOINT RightShoulder
				{
					OFFSET 0.000000 0.000000 0.000000
					CHANNELS 3 Zrotation Yrotation Xrotation
					JOINT RightArm
					{
						OFFSET -2.700000 1.550000 -0.730000
						CHANNELS 3 Zrotation Yrotation Xrotation
						JOINT RightForeArm
						{
							OFFSET -5.450000 0.000000 0.000000
							CHANNELS 3 Zrotation Yrotation Xrotation
							JOINT RightHand
							{
								OFFSET -3.450000 0.000000 0.000000
								CHANNELS 3 Zrotation Yrotation Xrotation
								JOINT RightHandIndex1
								{
									OFFSET -0.750000 0.000000 0.000000
									CHANNELS 3 Zrotation Yrotation Xrotation
									End Site
									{
										OFFSET 0.000000 0.000000 0.000000
									}
								}
							}
						}
					}
				}
			}
		}
	}
}
MOTION
Frames: 10
Frame Time: 0.016667
-1.622710 16.778050 -1.801360 -3.658974 21.687473 -27.578405 -14.718251 12.444870 2.354134 -3.252056 -0.701030 1.556551 9.222511 3.518434 37.764403 -1.208620 7.562160 2.014583 -0.200610 -0.394350 -0.690100 18.777968 -12.342108 2.800126 -5.266571 -1.569018 8.934400 6.875797 -9.428631 22.763888 -0.986317 -6.478893 2.179565 0.217420 1.189360 0.229260 -5.731948 2.047700 -7.630205 18.651724 1.450133 26.120842 -9.775579 6.951011 33.713671 5.649863 -4.589797 -9.011833 -10.406410 -3.597405 43.403069 13.618960 -10.999960 -35.466790 -2.466107 -47.809287 5.842315 -18.404895 -46.994683 -4.175616 92.205273 -49.718819 -56.144924 -4.612106 1.096383 1.340800 0.237450 -0.081390 0.278930 -6.373146 51.454025 5.450401 -2.165481 23.747767 -23.259986 -109.201582 48.633257 -57.374560 1.947122 0.502546 -1.084190 1.333070 0.965890 -0.036040 
-1.629480 16.770490 -1.808340 -3.281549 22.619212 -27.816652 -14.781334 12.684340 2.421633 -2.907073 -0.302510 2.131579 9.109925 3.759124 37.500162 -1.117481 7.531548 2.024618 -0.219540 -0.429980 -0.684830 18.659282 -12.272511 2.821865 -5.676344 -1.270776 8.655357 7.246067 -9.565979 23.356871 -1.001117 -6.448782 2.186254 0.146120 1.134800 0.241990 -5.522634 1.579975 -7.733555 17.994397 1.677443 27.431717 -9.377452 6.913638 33.141015 5.152794 -4.460978 -10.271562 -11.160786 -3.829763 45.627638 15.157760 -11.301460 -36.112700 -3.553235 -48.470855 6.660980 -18.984718 -45.547394 -6.040373 92.598722 -54.009272 -59.257756 -4.694226 1.085693 1.367730 0.188140 -0.038100 0.270560 -4.685937 52.546706 6.421697 1.338343 21.989191 -23.732229 -114.049511 51.386956 -65.327146 1.967106 0.847681 -1.041650 1.268000 0.943690 -0.034560 
-1.640020 16.763150 -1.814730 -2.838092 23.424698 -28.017261 -14.889627 13.015453 2.503876 -2.229931 0.020025 2.787087 8.731310 4.080958 37.099494 -1.034890 7.524985 2.030410 -0.249180 -0.476560 -0.674440 18.487053 -12.138601 2.845680 -6.046475 -1.111543 8.400460 7.391192 -9.543426 23.353872 -0.995197 -6.339022 2.212884 0.076830 1.090170 0.255180 -5.147086 0.863367 -7.785179 16.474028 1.801228 28.878203 -8.687350 6.994620 32.565433 4.772990 -4.502345 -11.534485 -12.181358 -3.710736 47.291348 16.010580 -11.384130 -36.592000 -4.479733 -48.293807 7.144206 -19.144602 -44.070486 -8.119724 92.350286 -58.224886 -61.748343 -4.810943 1.131571 1.390640 0.148680 0.001500 0.254480 -3.404176 53.084352 7.829926 3.082523 20.644947 -23.773397 -117.977841 52.188782 -72.312370 1.992595 1.077887 -1.010070 1.215550 0.930020 -0.035590 
-1.646260 16.751770 -1.826290 -2.431486 24.213840 -28.189953 -15.001321 13.346385 2.591045 -1.574740 0.259772 3.254556 8.269445 4.407091 36.671770 -0.968253 7.501216 2.046651 -0.292230 -0.528640 -0.680550 18.314047 -11.997213 2.860265 -6.513097 -1.039266 8.128063 7.481869 -9.461441 23.010429 -0.963654 -6.191415 2.280663 0.012440 1.052990 0.232400 -4.755439 0.125093 -7.821446 14.866032 1.807996 30.264419 -7.923277 7.031828 31.713350 4.451577 -4.773398 -12.742612 -13.655107 -3.511890 49.023841 17.105750 -11.709370 -37.232200 -5.495681 -47.794124 7.719096 -19.088937 -42.692533 -9.975271 91.227903 -61.939107 -63.172130 -4.937047 1.255322 1.412160 0.112680 0.020090 0.235770 -2.046784 53.587388 8.997273 4.185577 19.933749 -24.348950 -119.593089 52.162878 -75.318284 2.037341 1.173011 -1.001380 1.188320 0.919690 -0.041270 
-1.650650 16.735470 -1.833730 -1.705531 24.852860 -27.886450 -15.131724 13.636773 2.700001 -1.477038 0.380258 3.344740 7.900562 4.576410 36.143961 -0.928270 7.454121 2.074452 -0.326650 -0.555260 -0.700340 18.138208 -11.842318 2.830433 -7.246124 -0.930643 7.698428 7.605034 -9.433834 22.919564 -0.918212 -6.094620 2.331666 -0.018290 1.050280 0.215520 -4.307789 -0.615747 -7.814541 12.495927 2.186843 30.865819 -6.658410 7.322736 31.241085 3.965516 -4.533320 -13.432357 -13.648839 -3.729968 49.365781 17.406710 -11.951380 -36.864800 -6.202692 -47.162561 7.788146 -18.666224 -41.731435 -10.695617 89.616668 -63.807441 -63.187348 -5.010571 1.395943 1.400470 0.113710 0.017030 0.229920 -0.671542 53.616494 10.175993 5.241318 19.877605 -24.654040 -120.583601 51.115549 -77.069015 2.055777 1.124489 -0.998610 1.178680 0.914360 -0.035450 
-1.653530 16.729250 -1.837910 -1.290625 25.563923 -27.837588 -15.222091 13.848358 2.758725 -1.079144 0.492917 3.540778 7.253375 4.837094 35.410436 -0.894514 7.397985 2.110717 -0.370850 -0.588620 -0.739870 18.015897 -11.723140 2.820244 -7.897139 -0.905844 7.719143 7.975917 -9.520208 22.667864 -0.897996 -6.057594 2.367209 -0.053810 1.065460 0.203320 -4.001937 -1.160585 -7.817034 11.000015 2.399353 31.440785 -5.631109 7.425497 30.816419 3.553513 -4.560999 -14.038466 -14.209786 -3.892011 49.990851 18.342610 -12.466580 -36.805600 -7.081764 -46.791644 7.971571 -17.809044 -40.787934 -11.267162 86.334802 -64.837725 -61.376329 -5.122047 1.645595 1.392620 0.117440 0.016090 0.229820 0.887596 53.855140 10.952773 5.732711 19.359120 -25.548400 -120.674169 51.072850 -77.224279 2.082990 1.129532 -0.997150 1.183820 0.920600 -0.018830 
-1.658640 16.721270 -1.846140 -0.885474 26.355207 -27.705766 -15.296715 13.951941 2.793131 -0.889285 0.502159 3.613992 6.637956 5.001789 34.760032 -0.895813 7.327804 2.147496 -0.376950 -0.565330 -0.763650 17.931441 -11.647218 2.789806 -8.417742 -0.905355 7.602406 8.261378 -9.631740 22.681342 -0.897206 -6.047453 2.390328 -0.045500 1.077630 0.185480 -3.776858 -1.460331 -7.792164 9.614183 2.663933 31.696818 -4.675730 7.623461 30.619120 3.346390 -4.085617 -13.929024 -13.347199 -4.733835 50.360057 19.038340 -12.793360 -37.863240 -7.152503 -46.211683 7.867910 -16.622050 -40.365930 -10.404886 80.539622 -63.473017 -56.564545 -5.044718 1.762523 1.394450 0.117750 0.026720 0.244990 1.351653 53.599266 10.918917 6.121661 19.491834 -27.024875 -119.238067 49.777009 -73.638256 2.091889 0.993748 -1.002580 1.215440 0.911180 -0.002300 
-1.655580 16.717640 -1.854850 -1.071588 26.938623 -27.830040 -15.269488 13.913583 2.757694 -0.448545 0.497451 3.786056 6.279878 5.044752 34.017302 -0.899581 7.212257 2.189505 -0.376450 -0.549560 -0.772710 17.961540 -11.691177 2.789541 -8.429428 -0.967737 7.481429 8.359191 -9.705072 22.846644 -0.904802 -6.060691 2.388897 -0.043940 1.068730 0.169240 -3.902783 -1.301809 -7.795907 10.400690 2.525110 31.951059 -4.443039 7.278893 30.323699 3.057026 -3.983211 -13.794593 -13.222695 -5.433154 50.608869 20.182850 -13.340730 -38.598080 -7.533093 -46.003578 7.497687 -14.993936 -39.841738 -9.665697 74.431883 -61.100113 -50.355244 -4.842486 1.706411 1.386620 0.103250 0.031780 0.247920 2.380016 53.087451 11.076261 6.356567 19.472522 -27.777263 -118.010232 49.235318 -71.381294 2.116418 0.903456 -0.994130 1.216690 0.899640 0.009490 
-1.651320 16.716110 -1.861840 -1.201944 27.447873 -27.736654 -15.232540 13.844959 2.728704 -0.242892 0.451404 3.862997 5.995778 5.018536 33.206621 -0.923281 7.109546 2.239601 -0.394890 -0.565320 -0.795070 18.004552 -11.747262 2.781655 -8.601200 -1.035526 7.221070 8.588491 -9.796851 22.852688 -0.888563 -6.081187 2.390187 -0.044240 1.093410 0.149030 -4.064413 -1.097539 -7.805364 11.382038 2.423530 31.883770 -4.137791 6.898476 30.235179 2.568685 -3.990477 -13.716806 -13.212690 -6.110501 50.129862 20.917690 -14.197590 -38.135930 -7.326097 -46.123428 6.689624 -12.910553 -39.213757 -9.808203 68.275719 -57.439461 -43.384729 -4.692839 1.667164 1.366170 0.113490 0.006970 0.250300 3.170510 52.717827 11.545610 6.260081 18.768235 -28.465501 -117.572557 48.435949 -70.160470 2.131486 0.817700 -1.006970 1.235180 0.907270 0.020640 
-1.656010 16.717640 -1.871530 -1.416164 27.843531 -27.890053 -15.197858 13.782110 2.682373 0.222878 0.374032 3.951160 5.618745 5.019230 32.446465 -0.941431 7.005542 2.275500 -0.385190 -0.547440 -0.796190 18.045267 -11.794265 2.794020 -8.644283 -1.164939 7.246687 8.930415 -9.899261 22.563649 -0.901679 -6.103871 2.376379 -0.036250 1.089880 0.155240 -4.213172 -0.890173 -7.810380 12.438507 2.291520 32.263529 -3.892349 6.581477 29.973406 2.168660 -3.682848 -13.334177 -12.630692 -7.112325 49.549050 21.396490 -14.692910 -38.723180 -6.936443 -46.537647 5.207940 -9.990561 -38.734747 -10.400273 61.981050 -51.751794 -35.537474 -4.544489 1.707846 1.355600 0.110920 0.012440 0.253870 3.506575 52.267161 11.901839 5.554836 17.767198 -29.101020 -117.022982 47.056385 -68.325355 2.148696 0.675764 -0.993220 1.229650 0.901170 0.030860 
